<?xml version="1.0" encoding="UTF-8"?><svg id="Layer_2" xmlns="http://www.w3.org/2000/svg" viewBox="0 0 128 128"><defs><style>.cls-1{fill:none;}.cls-2{fill:#932f6d;}.cls-3{fill:#4c1b58;}.cls-4{fill:#672960;}.cls-5{fill:#f55498;}</style></defs><g id="Layer_1-2"><rect class="cls-1" width="128" height="128"/><rect class="cls-3" x="106.66" y="64.01" width="6.1" height="6.09"/><rect class="cls-3" x="106.66" y="57.9" width="6.1" height="6.1"/><rect class="cls-3" x="106.66" y="51.81" width="6.1" height="6.09"/><rect class="cls-3" x="100.57" y="64.01" width="6.09" height="6.09"/><rect class="cls-4" x="100.57" y="57.9" width="6.09" height="6.1"/><rect class="cls-4" x="100.57" y="51.81" width="6.09" height="6.09"/><rect class="cls-3" x="100.57" y="45.71" width="6.09" height="6.1"/><rect class="cls-3" x="100.57" y="15.24" width="6.09" height="6.09"/><rect class="cls-3" x="100.57" y="9.14" width="6.09" height="6.1"/><rect class="cls-3" x="94.47" y="57.9" width="6.1" height="6.1"/><rect class="cls-3" x="94.47" y="51.81" width="6.1" height="6.09"/><rect class="cls-4" x="94.47" y="45.71" width="6.1" height="6.1"/><rect class="cls-3" x="94.47" y="39.62" width="6.1" height="6.09"/><rect class="cls-3" x="94.47" y="21.34" width="6.1" height="6.1"/><rect class="cls-4" x="94.47" y="15.24" width="6.1" height="6.09"/><rect class="cls-3" x="94.47" y="9.14" width="6.1" height="6.1"/><rect class="cls-3" x="88.38" y="51.81" width="6.09" height="6.09"/><rect class="cls-4" x="88.38" y="45.71" width="6.09" height="6.1"/><rect class="cls-3" x="88.38" y="39.62" width="6.09" height="6.09"/><rect class="cls-3" x="88.38" y="21.34" width="6.09" height="6.1"/><rect class="cls-4" x="88.38" y="15.24" width="6.09" height="6.09"/><rect class="cls-3" x="88.38" y="9.14" width="6.09" height="6.1"/><rect class="cls-3" x="82.28" y="64.01" width="6.1" height="6.09"/><rect class="cls-3" x="82.28" y="57.9" width="6.1" height="6.1"/><rect class="cls-3" x="82.28" y="51.81" width="6.1" height="6.09"/><rect class="cls-4" x="82.28" y="45.71" width="6.1" height="6.1"/><rect class="cls-3" x="82.28" y="39.62" width="6.1" height="6.09"/><rect class="cls-3" x="82.28" y="27.44" width="6.1" height="6.09"/><rect class="cls-4" x="82.28" y="21.34" width="6.1" height="6.1"/><rect class="cls-4" x="82.28" y="15.24" width="6.1" height="6.09"/><rect class="cls-3" x="82.28" y="9.14" width="6.1" height="6.1"/><rect class="cls-3" x="76.19" y="112.77" width="6.09" height="6.09"/><rect class="cls-3" x="76.19" y="106.66" width="6.09" height="6.1"/><rect class="cls-3" x="76.19" y="100.57" width="6.09" height="6.09"/><rect class="cls-3" x="76.19" y="94.47" width="6.09" height="6.1"/><rect class="cls-3" x="76.19" y="64.01" width="6.09" height="6.09"/><rect class="cls-4" x="76.19" y="57.9" width="6.09" height="6.1"/><rect class="cls-4" x="76.19" y="51.81" width="6.09" height="6.09"/><rect class="cls-3" x="76.19" y="45.71" width="6.09" height="6.1"/><rect class="cls-3" x="76.19" y="39.62" width="6.09" height="6.09"/><rect class="cls-3" x="76.19" y="33.53" width="6.09" height="6.1"/><rect class="cls-4" x="76.19" y="27.44" width="6.09" height="6.09"/><rect class="cls-4" x="76.19" y="21.34" width="6.09" height="6.1"/><rect class="cls-3" x="76.19" y="15.24" width="6.09" height="6.09"/><rect class="cls-3" x="70.09" y="112.77" width="6.1" height="6.09"/><rect class="cls-2" x="70.09" y="106.66" width="6.1" height="6.1"/><rect class="cls-2" x="70.09" y="100.57" width="6.1" height="6.09"/><rect class="cls-3" x="70.09" y="94.47" width="6.1" height="6.1"/><rect class="cls-3" x="70.09" y="88.38" width="6.1" height="6.09"/><rect class="cls-3" x="70.09" y="82.28" width="6.1" height="6.1"/><rect class="cls-3" x="70.09" y="57.9" width="6.1" height="6.1"/><rect class="cls-4" x="70.09" y="51.81" width="6.1" height="6.09"/><rect class="cls-4" x="70.09" y="45.71" width="6.1" height="6.1"/><rect class="cls-3" x="70.09" y="39.62" width="6.1" height="6.09"/><rect class="cls-4" x="70.09" y="33.53" width="6.1" height="6.1"/><rect class="cls-4" x="70.09" y="27.44" width="6.1" height="6.09"/><rect class="cls-3" x="70.09" y="21.34" width="6.1" height="6.1"/><rect class="cls-3" x="70.09" y="15.24" width="6.1" height="6.09"/><rect class="cls-3" x="64" y="112.77" width="6.09" height="6.09"/><rect class="cls-2" x="64" y="100.57" width="6.09" height="6.09"/><rect class="cls-2" x="64" y="94.47" width="6.09" height="6.1"/><rect class="cls-2" x="64" y="88.38" width="6.09" height="6.09"/><rect class="cls-3" x="64" y="82.28" width="6.09" height="6.1"/><rect class="cls-3" x="64" y="76.19" width="6.09" height="6.09"/><rect class="cls-3" x="64" y="70.1" width="6.09" height="6.1"/><rect class="cls-3" x="64" y="64.01" width="6.09" height="6.09"/><rect class="cls-3" x="64" y="57.9" width="6.09" height="6.1"/><rect class="cls-3" x="64" y="51.81" width="6.09" height="6.09"/><rect class="cls-4" x="64" y="45.71" width="6.09" height="6.1"/><rect class="cls-3" x="64" y="39.62" width="6.09" height="6.09"/><rect class="cls-4" x="64" y="33.53" width="6.09" height="6.1"/><rect class="cls-3" x="64" y="27.44" width="6.09" height="6.09"/><rect class="cls-3" x="64" y="21.34" width="6.09" height="6.1"/><rect class="cls-3" x="57.9" y="106.66" width="6.1" height="6.1"/><rect class="cls-3" x="57.9" y="100.57" width="6.1" height="6.09"/><rect class="cls-3" x="57.9" y="94.48" width="6.1" height="6.09"/><rect class="cls-2" x="57.9" y="88.38" width="6.1" height="6.09"/><rect class="cls-2" x="63.99" y="106.67" width="6.1" height="6.09"/><rect class="cls-2" x="57.9" y="82.28" width="6.1" height="6.1"/><rect class="cls-2" x="57.9" y="76.19" width="6.1" height="6.09"/><rect class="cls-2" x="57.9" y="70.1" width="6.1" height="6.1"/><rect class="cls-2" x="57.9" y="64.01" width="6.1" height="6.09"/><rect class="cls-2" x="57.9" y="57.9" width="6.1" height="6.1"/><rect class="cls-3" x="57.9" y="51.81" width="6.1" height="6.09"/><rect class="cls-3" x="57.9" y="45.71" width="6.1" height="6.1"/><rect class="cls-3" x="57.9" y="39.62" width="6.1" height="6.09"/><rect class="cls-3" x="57.9" y="33.53" width="6.1" height="6.1"/><rect class="cls-3" x="57.9" y="27.44" width="6.1" height="6.09"/><rect class="cls-3" x="51.81" y="94.47" width="6.09" height="6.1"/><rect class="cls-3" x="51.81" y="88.38" width="6.09" height="6.09"/><rect class="cls-2" x="51.81" y="82.28" width="6.09" height="6.1"/><rect class="cls-5" x="51.81" y="76.19" width="6.09" height="6.09"/><rect class="cls-5" x="51.81" y="70.1" width="6.09" height="6.1"/><rect class="cls-2" x="51.81" y="64.01" width="6.09" height="6.09"/><rect class="cls-5" x="51.81" y="57.9" width="6.09" height="6.1"/><rect class="cls-3" x="51.81" y="51.81" width="6.09" height="6.09"/><rect class="cls-4" x="51.81" y="45.71" width="6.09" height="6.1"/><rect class="cls-3" x="51.81" y="39.62" width="6.09" height="6.09"/><rect class="cls-4" x="51.81" y="33.53" width="6.09" height="6.1"/><rect class="cls-4" x="51.81" y="27.44" width="6.09" height="6.09"/><rect class="cls-3" x="51.81" y="21.34" width="6.09" height="6.1"/><rect class="cls-3" x="45.71" y="82.28" width="6.1" height="6.1"/><rect class="cls-3" x="45.71" y="76.19" width="6.1" height="6.09"/><rect class="cls-3" x="45.71" y="70.1" width="6.1" height="6.1"/><rect class="cls-3" x="45.71" y="64.01" width="6.1" height="6.09"/><rect class="cls-3" x="45.71" y="57.9" width="6.1" height="6.1"/><rect class="cls-3" x="45.71" y="51.81" width="6.1" height="6.09"/><rect class="cls-4" x="45.71" y="45.71" width="6.1" height="6.1"/><rect class="cls-3" x="45.71" y="39.62" width="6.1" height="6.09"/><rect class="cls-3" x="45.71" y="33.53" width="6.1" height="6.1"/><rect class="cls-4" x="45.71" y="27.44" width="6.1" height="6.09"/><rect class="cls-4" x="45.71" y="21.34" width="6.1" height="6.1"/><rect class="cls-3" x="45.71" y="15.24" width="6.1" height="6.09"/><rect class="cls-3" x="39.62" y="51.81" width="6.09" height="6.09"/><rect class="cls-4" x="39.62" y="45.71" width="6.09" height="6.1"/><rect class="cls-3" x="39.62" y="39.62" width="6.09" height="6.09"/><rect class="cls-3" x="39.62" y="33.53" width="6.09" height="6.1"/><rect class="cls-3" x="39.62" y="27.44" width="6.09" height="6.09"/><rect class="cls-4" x="39.62" y="21.34" width="6.09" height="6.1"/><rect class="cls-3" x="39.62" y="15.24" width="6.09" height="6.09"/><rect class="cls-3" x="33.52" y="57.9" width="6.1" height="6.1"/><rect class="cls-4" x="33.52" y="51.81" width="6.1" height="6.09"/><rect class="cls-4" x="33.52" y="45.71" width="6.1" height="6.1"/><rect class="cls-3" x="33.52" y="39.62" width="6.1" height="6.09"/><rect class="cls-3" x="33.52" y="27.44" width="6.1" height="6.09"/><rect class="cls-4" x="33.52" y="21.34" width="6.1" height="6.1"/><rect class="cls-4" x="33.52" y="15.24" width="6.1" height="6.09"/><rect class="cls-3" x="33.52" y="9.14" width="6.1" height="6.1"/><rect class="cls-3" x="27.43" y="64.01" width="6.09" height="6.09"/><rect class="cls-4" x="27.43" y="57.9" width="6.09" height="6.1"/><rect class="cls-4" x="27.43" y="51.81" width="6.09" height="6.09"/><rect class="cls-4" x="27.43" y="45.71" width="6.09" height="6.1"/><rect class="cls-3" x="27.43" y="39.62" width="6.09" height="6.09"/><rect class="cls-3" x="27.43" y="27.44" width="6.09" height="6.09"/><rect class="cls-4" x="27.43" y="21.34" width="6.09" height="6.1"/><rect class="cls-4" x="27.43" y="15.24" width="6.09" height="6.09"/><rect class="cls-3" x="27.43" y="9.14" width="6.09" height="6.1"/><rect class="cls-3" x="21.33" y="70.1" width="6.1" height="6.1"/><rect class="cls-4" x="21.33" y="64.01" width="6.1" height="6.09"/><rect class="cls-4" x="21.33" y="57.9" width="6.1" height="6.1"/><rect class="cls-4" x="21.33" y="51.81" width="6.1" height="6.09"/><rect class="cls-3" x="21.33" y="45.71" width="6.1" height="6.1"/><rect class="cls-3" x="21.33" y="21.34" width="6.1" height="6.1"/><rect class="cls-4" x="21.33" y="15.24" width="6.1" height="6.09"/><rect class="cls-3" x="21.33" y="9.14" width="6.1" height="6.1"/><rect class="cls-3" x="15.24" y="64.01" width="6.09" height="6.09"/><rect class="cls-3" x="15.24" y="57.9" width="6.09" height="6.1"/><rect class="cls-3" x="15.24" y="51.81" width="6.09" height="6.09"/><rect class="cls-3" x="15.24" y="15.24" width="6.09" height="6.09"/></g></svg>