<?xml version="1.0" encoding="UTF-8"?><svg id="Layer_2" xmlns="http://www.w3.org/2000/svg" viewBox="0 0 128 128"><defs><style>.cls-1{fill:none;}.cls-2{fill:#d5d5d5;}.cls-3{fill:#fbfbfb;}</style></defs><g id="Layer_1-2"><rect class="cls-1" width="128" height="128"/><g id="_8"><rect class="cls-2" x="62.51" y="46.95" width="1.51" height="1.51"/><rect class="cls-2" x="68.57" y="45.44" width="1.51" height="1.51"/><rect class="cls-2" x="67.05" y="45.44" width="1.51" height="1.51"/><rect class="cls-2" x="65.54" y="45.44" width="1.51" height="1.51"/><rect class="cls-2" x="64.02" y="45.44" width="1.51" height="1.51"/><rect class="cls-2" x="62.51" y="45.44" width="1.51" height="1.51"/><rect class="cls-2" x="71.59" y="46.95" width="1.51" height="1.51"/><rect class="cls-2" x="70.08" y="46.95" width="1.51" height="1.51"/><rect class="cls-3" x="68.57" y="46.95" width="1.51" height="1.51"/><rect class="cls-3" x="67.05" y="46.95" width="1.51" height="1.51"/><rect class="cls-3" x="65.54" y="46.95" width="1.51" height="1.51"/><rect class="cls-3" x="64.02" y="46.95" width="1.51" height="1.51"/><rect class="cls-2" x="61" y="46.95" width="1.51" height="1.51"/><rect class="cls-2" x="59.48" y="46.95" width="1.51" height="1.51"/><rect class="cls-2" x="57.97" y="46.95" width="1.51" height="1.51"/><rect class="cls-2" x="73.11" y="48.47" width="1.51" height="1.51"/><rect class="cls-2" x="71.59" y="48.47" width="1.51" height="1.51"/><rect class="cls-3" x="70.08" y="48.47" width="1.51" height="1.51"/><rect class="cls-3" x="68.57" y="48.47" width="1.51" height="1.51"/><rect class="cls-3" x="67.05" y="48.47" width="1.51" height="1.51"/><rect class="cls-3" x="65.54" y="48.47" width="1.51" height="1.51"/><rect class="cls-3" x="64.02" y="48.47" width="1.51" height="1.51"/><rect class="cls-3" x="62.51" y="48.47" width="1.51" height="1.51"/><rect class="cls-3" x="61" y="48.47" width="1.51" height="1.51"/><rect class="cls-3" x="59.48" y="48.47" width="1.51" height="1.51"/><rect class="cls-2" x="57.97" y="48.47" width="1.51" height="1.51"/><rect class="cls-2" x="56.46" y="48.47" width="1.51" height="1.51"/><rect class="cls-2" x="73.11" y="49.98" width="1.51" height="1.51"/><rect class="cls-3" x="71.59" y="49.98" width="1.51" height="1.51"/><rect class="cls-3" x="70.08" y="49.98" width="1.51" height="1.51"/><rect class="cls-3" x="68.57" y="49.98" width="1.51" height="1.51"/><rect class="cls-3" x="67.05" y="49.98" width="1.51" height="1.51"/><rect class="cls-3" x="65.54" y="49.98" width="1.51" height="1.51"/><rect class="cls-3" x="64.02" y="49.98" width="1.51" height="1.51"/><rect class="cls-3" x="62.51" y="49.98" width="1.51" height="1.51"/><rect class="cls-3" x="61" y="49.98" width="1.51" height="1.51"/><rect class="cls-3" x="59.48" y="49.98" width="1.51" height="1.51"/><rect class="cls-3" x="57.97" y="49.98" width="1.51" height="1.51"/><rect class="cls-3" x="56.46" y="49.98" width="1.51" height="1.51"/><rect class="cls-2" x="54.94" y="49.98" width="1.51" height="1.51"/><rect class="cls-2" x="73.11" y="51.49" width="1.51" height="1.51"/><rect class="cls-3" x="71.59" y="51.49" width="1.51" height="1.51"/><rect class="cls-3" x="70.08" y="51.49" width="1.51" height="1.51"/><rect class="cls-3" x="68.57" y="51.49" width="1.51" height="1.51"/><rect class="cls-2" x="67.05" y="51.49" width="1.51" height="1.51"/><rect class="cls-2" x="65.54" y="51.49" width="1.51" height="1.51"/><rect class="cls-2" x="64.02" y="51.49" width="1.51" height="1.51"/><rect class="cls-2" x="62.51" y="51.49" width="1.51" height="1.51"/><rect class="cls-3" x="61" y="51.49" width="1.51" height="1.51"/><rect class="cls-3" x="59.48" y="51.49" width="1.51" height="1.51"/><rect class="cls-3" x="57.97" y="51.49" width="1.51" height="1.51"/><rect class="cls-3" x="56.46" y="51.49" width="1.51" height="1.51"/><rect class="cls-2" x="54.94" y="51.49" width="1.51" height="1.51"/><rect class="cls-2" x="71.59" y="53.01" width="1.51" height="1.51"/><rect class="cls-3" x="70.08" y="53.01" width="1.51" height="1.51"/><rect class="cls-2" x="68.57" y="53.01" width="1.51" height="1.51"/><rect class="cls-2" x="67.05" y="53.01" width="1.51" height="1.51"/><rect class="cls-2" x="62.51" y="53.01" width="1.51" height="1.51"/><rect class="cls-2" x="61" y="53.01" width="1.51" height="1.51"/><rect class="cls-3" x="59.48" y="53.01" width="1.51" height="1.51"/><rect class="cls-3" x="57.97" y="53.01" width="1.51" height="1.51"/><rect class="cls-2" x="56.46" y="53.01" width="1.51" height="1.51"/><rect class="cls-2" x="70.08" y="54.52" width="1.51" height="1.51"/><rect class="cls-2" x="59.48" y="54.52" width="1.51" height="1.51"/><rect class="cls-2" x="57.97" y="54.52" width="1.51" height="1.51"/><rect class="cls-2" x="85.16" y="67.43" width="1.51" height="1.51"/><rect class="cls-2" x="83.65" y="67.43" width="1.51" height="1.51"/><rect class="cls-2" x="82.14" y="67.43" width="1.51" height="1.51"/><rect class="cls-2" x="86.68" y="68.94" width="1.51" height="1.51"/><rect class="cls-3" x="85.16" y="68.94" width="1.51" height="1.51"/><rect class="cls-3" x="83.65" y="68.94" width="1.51" height="1.51"/><rect class="cls-2" x="82.14" y="68.94" width="1.51" height="1.51"/><rect class="cls-2" x="80.62" y="68.94" width="1.51" height="1.51"/><rect class="cls-2" x="86.68" y="70.45" width="1.51" height="1.51"/><rect class="cls-2" x="85.16" y="70.45" width="1.51" height="1.51"/><rect class="cls-3" x="83.65" y="70.45" width="1.51" height="1.51"/><rect class="cls-3" x="82.14" y="70.45" width="1.51" height="1.51"/><rect class="cls-2" x="80.62" y="70.45" width="1.51" height="1.51"/><rect class="cls-2" x="79.11" y="70.45" width="1.51" height="1.51"/><rect class="cls-2" x="85.16" y="71.97" width="1.51" height="1.51"/><rect class="cls-3" x="83.65" y="71.97" width="1.51" height="1.51"/><rect class="cls-3" x="82.14" y="71.97" width="1.51" height="1.51"/><rect class="cls-3" x="80.62" y="71.97" width="1.51" height="1.51"/><rect class="cls-2" x="79.11" y="71.97" width="1.51" height="1.51"/><rect class="cls-2" x="77.6" y="71.97" width="1.51" height="1.51"/><rect class="cls-2" x="85.16" y="73.48" width="1.51" height="1.51"/><rect class="cls-3" x="83.65" y="73.48" width="1.51" height="1.51"/><rect class="cls-3" x="82.14" y="73.48" width="1.51" height="1.51"/><rect class="cls-3" x="80.62" y="73.48" width="1.51" height="1.51"/><rect class="cls-3" x="79.11" y="73.48" width="1.51" height="1.51"/><rect class="cls-2" x="77.6" y="73.48" width="1.51" height="1.51"/><rect class="cls-2" x="76.08" y="73.48" width="1.51" height="1.51"/><rect class="cls-2" x="83.65" y="74.99" width="1.51" height="1.51"/><rect class="cls-3" x="82.14" y="74.99" width="1.51" height="1.51"/><rect class="cls-3" x="80.62" y="74.99" width="1.51" height="1.51"/><rect class="cls-3" x="79.11" y="74.99" width="1.51" height="1.51"/><rect class="cls-3" x="77.6" y="74.99" width="1.51" height="1.51"/><rect class="cls-2" x="76.08" y="74.99" width="1.51" height="1.51"/><rect class="cls-2" x="74.57" y="74.99" width="1.51" height="1.51"/><rect class="cls-2" x="73.06" y="74.99" width="1.51" height="1.51"/><rect class="cls-2" x="71.54" y="74.99" width="1.51" height="1.51"/><rect class="cls-2" x="83.65" y="76.51" width="1.51" height="1.51"/><rect class="cls-2" x="82.14" y="76.51" width="1.51" height="1.51"/><rect class="cls-3" x="80.62" y="76.51" width="1.51" height="1.51"/><rect class="cls-3" x="79.11" y="76.51" width="1.51" height="1.51"/><rect class="cls-3" x="77.6" y="76.51" width="1.51" height="1.51"/><rect class="cls-3" x="76.08" y="76.51" width="1.51" height="1.51"/><rect class="cls-3" x="74.57" y="76.51" width="1.51" height="1.51"/><rect class="cls-3" x="73.06" y="76.51" width="1.51" height="1.51"/><rect class="cls-3" x="71.54" y="76.51" width="1.51" height="1.51"/><rect class="cls-2" x="70.03" y="76.51" width="1.51" height="1.51"/><rect class="cls-2" x="82.14" y="78.02" width="1.51" height="1.51"/><rect class="cls-2" x="80.62" y="78.02" width="1.51" height="1.51"/><rect class="cls-3" x="79.11" y="78.02" width="1.51" height="1.51"/><rect class="cls-3" x="77.6" y="78.02" width="1.51" height="1.51"/><rect class="cls-3" x="76.08" y="78.02" width="1.51" height="1.51"/><rect class="cls-3" x="74.57" y="78.02" width="1.51" height="1.51"/><rect class="cls-3" x="73.06" y="78.02" width="1.51" height="1.51"/><rect class="cls-3" x="71.54" y="78.02" width="1.51" height="1.51"/><rect class="cls-2" x="70.03" y="78.02" width="1.51" height="1.51"/><rect class="cls-2" x="79.11" y="79.53" width="1.51" height="1.51"/><rect class="cls-3" x="77.6" y="79.53" width="1.51" height="1.51"/><rect class="cls-3" x="76.08" y="79.53" width="1.51" height="1.51"/><rect class="cls-2" x="74.57" y="79.53" width="1.51" height="1.51"/><rect class="cls-3" x="73.06" y="79.53" width="1.51" height="1.51"/><rect class="cls-2" x="71.54" y="79.53" width="1.51" height="1.51"/><rect class="cls-2" x="77.6" y="81.05" width="1.51" height="1.51"/><rect class="cls-2" x="76.08" y="81.05" width="1.51" height="1.51"/><rect class="cls-2" x="73.06" y="81.05" width="1.51" height="1.51"/><rect class="cls-2" x="53.43" y="79.53" width="1.51" height="1.51"/><rect class="cls-2" x="53.43" y="78.02" width="1.51" height="1.51"/><rect class="cls-2" x="53.43" y="76.51" width="1.51" height="1.51"/><rect class="cls-2" x="51.92" y="81.05" width="1.51" height="1.51"/><rect class="cls-3" x="51.92" y="79.53" width="1.51" height="1.51"/><rect class="cls-3" x="51.92" y="78.02" width="1.51" height="1.51"/><rect class="cls-3" x="51.92" y="76.51" width="1.51" height="1.51"/><rect class="cls-2" x="51.92" y="74.99" width="1.51" height="1.51"/><rect class="cls-2" x="50.4" y="81.05" width="1.51" height="1.51"/><rect class="cls-3" x="50.4" y="79.53" width="1.51" height="1.51"/><rect class="cls-3" x="50.4" y="78.02" width="1.51" height="1.51"/><rect class="cls-3" x="50.4" y="76.51" width="1.51" height="1.51"/><rect class="cls-3" x="50.4" y="74.99" width="1.51" height="1.51"/><rect class="cls-2" x="50.4" y="73.48" width="1.51" height="1.51"/><rect class="cls-2" x="48.89" y="79.53" width="1.51" height="1.51"/><rect class="cls-3" x="48.89" y="78.02" width="1.51" height="1.51"/><rect class="cls-3" x="48.89" y="76.51" width="1.51" height="1.51"/><rect class="cls-3" x="48.89" y="74.99" width="1.51" height="1.51"/><rect class="cls-3" x="48.89" y="73.48" width="1.51" height="1.51"/><rect class="cls-2" x="48.89" y="71.97" width="1.51" height="1.51"/><rect class="cls-2" x="47.38" y="79.53" width="1.51" height="1.51"/><rect class="cls-3" x="47.38" y="78.02" width="1.51" height="1.51"/><rect class="cls-3" x="47.38" y="76.51" width="1.51" height="1.51"/><rect class="cls-3" x="47.38" y="74.99" width="1.51" height="1.51"/><rect class="cls-3" x="47.38" y="73.48" width="1.51" height="1.51"/><rect class="cls-3" x="47.38" y="71.97" width="1.51" height="1.51"/><rect class="cls-2" x="47.38" y="70.45" width="1.51" height="1.51"/><rect class="cls-2" x="45.86" y="78.02" width="1.51" height="1.51"/><rect class="cls-3" x="45.86" y="76.51" width="1.51" height="1.51"/><rect class="cls-3" x="45.86" y="74.99" width="1.51" height="1.51"/><rect class="cls-3" x="45.86" y="73.48" width="1.51" height="1.51"/><rect class="cls-3" x="45.86" y="71.97" width="1.51" height="1.51"/><rect class="cls-3" x="45.86" y="70.45" width="1.51" height="1.51"/><rect class="cls-2" x="45.86" y="68.94" width="1.51" height="1.51"/><rect class="cls-2" x="45.86" y="67.43" width="1.51" height="1.51"/><rect class="cls-2" x="45.86" y="65.91" width="1.51" height="1.51"/><rect class="cls-2" x="44.35" y="78.02" width="1.51" height="1.51"/><rect class="cls-2" x="44.35" y="76.51" width="1.51" height="1.51"/><rect class="cls-3" x="44.35" y="74.99" width="1.51" height="1.51"/><rect class="cls-3" x="44.35" y="73.48" width="1.51" height="1.51"/><rect class="cls-3" x="44.35" y="71.97" width="1.51" height="1.51"/><rect class="cls-3" x="44.35" y="70.45" width="1.51" height="1.51"/><rect class="cls-3" x="44.35" y="68.94" width="1.51" height="1.51"/><rect class="cls-3" x="44.35" y="67.43" width="1.51" height="1.51"/><rect class="cls-3" x="44.35" y="65.91" width="1.51" height="1.51"/><rect class="cls-2" x="44.35" y="64.4" width="1.51" height="1.51"/><rect class="cls-2" x="42.84" y="76.51" width="1.51" height="1.51"/><rect class="cls-2" x="42.84" y="74.99" width="1.51" height="1.51"/><rect class="cls-3" x="42.84" y="73.48" width="1.51" height="1.51"/><rect class="cls-3" x="42.84" y="71.97" width="1.51" height="1.51"/><rect class="cls-3" x="42.84" y="70.45" width="1.51" height="1.51"/><rect class="cls-3" x="42.84" y="68.94" width="1.51" height="1.51"/><rect class="cls-3" x="42.84" y="67.43" width="1.51" height="1.51"/><rect class="cls-3" x="42.84" y="65.91" width="1.51" height="1.51"/><rect class="cls-2" x="42.84" y="64.4" width="1.51" height="1.51"/><rect class="cls-2" x="41.32" y="73.48" width="1.51" height="1.51"/><rect class="cls-3" x="41.32" y="71.97" width="1.51" height="1.51"/><rect class="cls-3" x="41.32" y="70.45" width="1.51" height="1.51"/><rect class="cls-2" x="41.32" y="68.94" width="1.51" height="1.51"/><rect class="cls-2" x="41.32" y="67.43" width="1.51" height="1.51"/><rect class="cls-2" x="41.32" y="65.91" width="1.51" height="1.51"/><rect class="cls-2" x="39.81" y="71.97" width="1.51" height="1.51"/><rect class="cls-2" x="39.81" y="70.45" width="1.51" height="1.51"/></g></g></svg>