<?xml version="1.0" encoding="UTF-8"?><svg id="Layer_2" xmlns="http://www.w3.org/2000/svg" viewBox="0 0 128 128"><defs><style>.cls-1{fill:none;}.cls-2{fill:#d5d5d5;}.cls-3{fill:#fbfbfb;}</style></defs><g id="Layer_1-2"><rect class="cls-1" width="128" height="128"/><g id="_7"><rect class="cls-3" x="70.81" y="88.97" width="1.51" height="1.51"/><rect class="cls-2" x="66.27" y="87.46" width="1.51" height="1.51"/><rect class="cls-3" x="43.57" y="49.62" width="1.51" height="1.51"/><rect class="cls-2" x="43.57" y="51.13" width="1.51" height="1.51"/><rect class="cls-2" x="48.11" y="48.11" width="1.51" height="1.51"/><rect class="cls-2" x="46.59" y="49.62" width="1.51" height="1.51"/><rect class="cls-2" x="46.59" y="48.11" width="1.51" height="1.51"/><rect class="cls-3" x="45.08" y="49.62" width="1.51" height="1.51"/><rect class="cls-2" x="88.97" y="52.65" width="1.51" height="1.51"/><rect class="cls-2" x="66.27" y="39.03" width="1.51" height="1.51"/><rect class="cls-2" x="64.76" y="39.03" width="1.51" height="1.51"/><rect class="cls-2" x="63.24" y="39.03" width="1.51" height="1.51"/><rect class="cls-2" x="60.22" y="40.54" width="1.51" height="1.51"/><rect class="cls-2" x="61.73" y="39.03" width="1.51" height="1.51"/><rect class="cls-3" x="60.22" y="39.03" width="1.51" height="1.51"/><rect class="cls-2" x="90.49" y="58.7" width="1.51" height="1.51"/><rect class="cls-2" x="90.49" y="57.19" width="1.51" height="1.51"/><rect class="cls-2" x="90.49" y="55.68" width="1.51" height="1.51"/><rect class="cls-2" x="90.49" y="54.16" width="1.51" height="1.51"/><rect class="cls-2" x="90.49" y="52.65" width="1.51" height="1.51"/><rect class="cls-2" x="88.97" y="61.73" width="1.51" height="1.51"/><rect class="cls-2" x="88.97" y="60.22" width="1.51" height="1.51"/><rect class="cls-2" x="88.97" y="58.7" width="1.51" height="1.51"/><rect class="cls-2" x="88.97" y="57.19" width="1.51" height="1.51"/><rect class="cls-3" x="88.97" y="55.68" width="1.51" height="1.51"/><rect class="cls-3" x="88.97" y="54.16" width="1.51" height="1.51"/><rect class="cls-2" x="88.97" y="51.13" width="1.51" height="1.51"/><rect class="cls-2" x="88.97" y="49.62" width="1.51" height="1.51"/><rect class="cls-2" x="88.97" y="48.11" width="1.51" height="1.51"/><rect class="cls-2" x="87.46" y="63.24" width="1.51" height="1.51"/><rect class="cls-2" x="87.46" y="61.73" width="1.51" height="1.51"/><rect class="cls-2" x="87.46" y="60.22" width="1.51" height="1.51"/><rect class="cls-3" x="87.46" y="58.7" width="1.51" height="1.51"/><rect class="cls-3" x="87.46" y="57.19" width="1.51" height="1.51"/><rect class="cls-3" x="87.46" y="55.68" width="1.51" height="1.51"/><rect class="cls-3" x="87.46" y="54.16" width="1.51" height="1.51"/><rect class="cls-3" x="87.46" y="52.65" width="1.51" height="1.51"/><rect class="cls-3" x="87.46" y="51.13" width="1.51" height="1.51"/><rect class="cls-2" x="87.46" y="49.62" width="1.51" height="1.51"/><rect class="cls-2" x="87.46" y="48.11" width="1.51" height="1.51"/><rect class="cls-2" x="87.46" y="46.59" width="1.51" height="1.51"/><rect class="cls-2" x="85.95" y="79.89" width="1.51" height="1.51"/><rect class="cls-2" x="85.95" y="78.38" width="1.51" height="1.51"/><rect class="cls-2" x="85.95" y="76.87" width="1.51" height="1.51"/><rect class="cls-2" x="85.95" y="63.24" width="1.51" height="1.51"/><rect class="cls-2" x="85.95" y="61.73" width="1.51" height="1.51"/><rect class="cls-3" x="85.95" y="60.22" width="1.51" height="1.51"/><rect class="cls-3" x="85.95" y="58.7" width="1.51" height="1.51"/><rect class="cls-2" x="85.95" y="57.19" width="1.51" height="1.51"/><rect class="cls-3" x="85.95" y="55.68" width="1.51" height="1.51"/><rect class="cls-3" x="85.95" y="54.16" width="1.51" height="1.51"/><rect class="cls-2" x="85.95" y="52.65" width="1.51" height="1.51"/><rect class="cls-3" x="85.95" y="51.13" width="1.51" height="1.51"/><rect class="cls-3" x="85.95" y="49.62" width="1.51" height="1.51"/><rect class="cls-2" x="85.95" y="48.11" width="1.51" height="1.51"/><rect class="cls-2" x="85.95" y="46.59" width="1.51" height="1.51"/><rect class="cls-2" x="85.95" y="45.08" width="1.51" height="1.51"/><rect class="cls-2" x="84.43" y="82.92" width="1.51" height="1.51"/><rect class="cls-2" x="84.43" y="81.41" width="1.51" height="1.51"/><rect class="cls-2" x="84.43" y="79.89" width="1.51" height="1.51"/><rect class="cls-2" x="84.43" y="78.38" width="1.51" height="1.51"/><rect class="cls-2" x="84.43" y="76.87" width="1.51" height="1.51"/><rect class="cls-2" x="84.43" y="63.24" width="1.51" height="1.51"/><rect class="cls-3" x="84.43" y="61.73" width="1.51" height="1.51"/><rect class="cls-2" x="84.43" y="60.22" width="1.51" height="1.51"/><rect class="cls-2" x="84.43" y="58.7" width="1.51" height="1.51"/><rect class="cls-2" x="84.43" y="57.19" width="1.51" height="1.51"/><rect class="cls-2" x="84.43" y="55.68" width="1.51" height="1.51"/><rect class="cls-2" x="84.43" y="54.16" width="1.51" height="1.51"/><rect class="cls-2" x="84.43" y="52.65" width="1.51" height="1.51"/><rect class="cls-2" x="84.43" y="51.13" width="1.51" height="1.51"/><rect class="cls-2" x="84.43" y="49.62" width="1.51" height="1.51"/><rect class="cls-3" x="84.43" y="48.11" width="1.51" height="1.51"/><rect class="cls-2" x="84.43" y="46.59" width="1.51" height="1.51"/><rect class="cls-2" x="84.43" y="45.08" width="1.51" height="1.51"/><rect class="cls-2" x="82.92" y="85.95" width="1.51" height="1.51"/><rect class="cls-2" x="82.92" y="84.43" width="1.51" height="1.51"/><rect class="cls-2" x="82.92" y="82.92" width="1.51" height="1.51"/><rect class="cls-3" x="82.92" y="81.41" width="1.51" height="1.51"/><rect class="cls-3" x="82.92" y="79.89" width="1.51" height="1.51"/><rect class="cls-2" x="82.92" y="78.38" width="1.51" height="1.51"/><rect class="cls-2" x="82.92" y="76.87" width="1.51" height="1.51"/><rect class="cls-2" x="82.92" y="75.35" width="1.51" height="1.51"/><rect class="cls-2" x="82.92" y="61.73" width="1.51" height="1.51"/><rect class="cls-2" x="82.92" y="60.22" width="1.51" height="1.51"/><rect class="cls-2" x="82.92" y="58.7" width="1.51" height="1.51"/><rect class="cls-2" x="82.92" y="57.19" width="1.51" height="1.51"/><rect class="cls-2" x="82.92" y="55.68" width="1.51" height="1.51"/><rect class="cls-2" x="82.92" y="54.16" width="1.51" height="1.51"/><rect class="cls-2" x="82.92" y="52.65" width="1.51" height="1.51"/><rect class="cls-2" x="82.92" y="51.13" width="1.51" height="1.51"/><rect class="cls-2" x="82.92" y="49.62" width="1.51" height="1.51"/><rect class="cls-2" x="82.92" y="48.11" width="1.51" height="1.51"/><rect class="cls-2" x="82.92" y="46.59" width="1.51" height="1.51"/><rect class="cls-2" x="81.41" y="87.46" width="1.51" height="1.51"/><rect class="cls-2" x="81.41" y="85.95" width="1.51" height="1.51"/><rect class="cls-2" x="81.41" y="84.43" width="1.51" height="1.51"/><rect class="cls-3" x="81.41" y="82.92" width="1.51" height="1.51"/><rect class="cls-3" x="81.41" y="81.41" width="1.51" height="1.51"/><rect class="cls-3" x="81.41" y="79.89" width="1.51" height="1.51"/><rect class="cls-2" x="81.41" y="78.38" width="1.51" height="1.51"/><rect class="cls-2" x="81.41" y="76.87" width="1.51" height="1.51"/><rect class="cls-2" x="81.41" y="75.35" width="1.51" height="1.51"/><rect class="cls-2" x="81.41" y="60.22" width="1.51" height="1.51"/><rect class="cls-2" x="81.41" y="58.7" width="1.51" height="1.51"/><rect class="cls-2" x="81.41" y="57.19" width="1.51" height="1.51"/><rect class="cls-2" x="81.41" y="52.65" width="1.51" height="1.51"/><rect class="cls-2" x="81.41" y="51.13" width="1.51" height="1.51"/><rect class="cls-2" x="81.41" y="49.62" width="1.51" height="1.51"/><rect class="cls-2" x="81.41" y="48.11" width="1.51" height="1.51"/><rect class="cls-2" x="79.89" y="87.46" width="1.51" height="1.51"/><rect class="cls-2" x="79.89" y="85.95" width="1.51" height="1.51"/><rect class="cls-2" x="79.89" y="84.43" width="1.51" height="1.51"/><rect class="cls-3" x="79.89" y="82.92" width="1.51" height="1.51"/><rect class="cls-3" x="79.89" y="81.41" width="1.51" height="1.51"/><rect class="cls-2" x="79.89" y="79.89" width="1.51" height="1.51"/><rect class="cls-2" x="79.89" y="78.38" width="1.51" height="1.51"/><rect class="cls-2" x="79.89" y="76.87" width="1.51" height="1.51"/><rect class="cls-2" x="79.89" y="75.35" width="1.51" height="1.51"/><rect class="cls-2" x="78.38" y="88.97" width="1.51" height="1.51"/><rect class="cls-2" x="78.38" y="87.46" width="1.51" height="1.51"/><rect class="cls-2" x="78.38" y="85.95" width="1.51" height="1.51"/><rect class="cls-3" x="78.38" y="84.43" width="1.51" height="1.51"/><rect class="cls-3" x="78.38" y="82.92" width="1.51" height="1.51"/><rect class="cls-3" x="78.38" y="81.41" width="1.51" height="1.51"/><rect class="cls-2" x="78.38" y="79.89" width="1.51" height="1.51"/><rect class="cls-2" x="78.38" y="78.38" width="1.51" height="1.51"/><rect class="cls-2" x="76.86" y="88.97" width="1.51" height="1.51"/><rect class="cls-2" x="76.86" y="87.46" width="1.51" height="1.51"/><rect class="cls-3" x="76.86" y="85.95" width="1.51" height="1.51"/><rect class="cls-3" x="76.86" y="84.43" width="1.51" height="1.51"/><rect class="cls-3" x="76.86" y="82.92" width="1.51" height="1.51"/><rect class="cls-2" x="76.86" y="81.41" width="1.51" height="1.51"/><rect class="cls-2" x="75.35" y="88.97" width="1.51" height="1.51"/><rect class="cls-3" x="75.35" y="87.46" width="1.51" height="1.51"/><rect class="cls-3" x="75.35" y="85.95" width="1.51" height="1.51"/><rect class="cls-3" x="75.35" y="84.43" width="1.51" height="1.51"/><rect class="cls-2" x="75.35" y="82.92" width="1.51" height="1.51"/><rect class="cls-2" x="75.35" y="81.41" width="1.51" height="1.51"/><rect class="cls-2" x="75.35" y="79.89" width="1.51" height="1.51"/><rect class="cls-2" x="73.84" y="88.97" width="1.51" height="1.51"/><rect class="cls-3" x="73.84" y="87.46" width="1.51" height="1.51"/><rect class="cls-3" x="73.84" y="85.95" width="1.51" height="1.51"/><rect class="cls-3" x="73.84" y="84.43" width="1.51" height="1.51"/><rect class="cls-2" x="73.84" y="82.92" width="1.51" height="1.51"/><rect class="cls-2" x="73.84" y="81.41" width="1.51" height="1.51"/><rect class="cls-2" x="73.84" y="79.89" width="1.51" height="1.51"/><rect class="cls-2" x="73.84" y="40.54" width="1.51" height="1.51"/><rect class="cls-2" x="73.84" y="39.03" width="1.51" height="1.51"/><rect class="cls-2" x="72.32" y="90.49" width="1.51" height="1.51"/><rect class="cls-3" x="72.32" y="88.97" width="1.51" height="1.51"/><rect class="cls-3" x="72.32" y="87.46" width="1.51" height="1.51"/><rect class="cls-3" x="72.32" y="85.95" width="1.51" height="1.51"/><rect class="cls-2" x="72.32" y="84.43" width="1.51" height="1.51"/><rect class="cls-2" x="72.32" y="82.92" width="1.51" height="1.51"/><rect class="cls-2" x="72.32" y="81.41" width="1.51" height="1.51"/><rect class="cls-2" x="72.32" y="40.54" width="1.51" height="1.51"/><rect class="cls-2" x="72.32" y="39.03" width="1.51" height="1.51"/><rect class="cls-2" x="72.32" y="37.51" width="1.51" height="1.51"/><rect class="cls-2" x="70.81" y="90.49" width="1.51" height="1.51"/><rect class="cls-3" x="70.81" y="87.46" width="1.51" height="1.51"/><rect class="cls-3" x="70.81" y="85.95" width="1.51" height="1.51"/><rect class="cls-2" x="70.81" y="84.43" width="1.51" height="1.51"/><rect class="cls-2" x="70.81" y="82.92" width="1.51" height="1.51"/><rect class="cls-2" x="70.81" y="81.41" width="1.51" height="1.51"/><rect class="cls-2" x="70.81" y="42.05" width="1.51" height="1.51"/><rect class="cls-3" x="70.81" y="40.54" width="1.51" height="1.51"/><rect class="cls-3" x="70.81" y="39.03" width="1.51" height="1.51"/><rect class="cls-2" x="70.81" y="37.51" width="1.51" height="1.51"/><rect class="cls-2" x="70.81" y="36" width="1.51" height="1.51"/><rect class="cls-2" x="69.3" y="92" width="1.51" height="1.51"/><rect class="cls-2" x="67.78" y="92" width="1.51" height="1.51"/><rect class="cls-2" x="69.3" y="90.49" width="1.51" height="1.51"/><rect class="cls-3" x="69.3" y="88.97" width="1.51" height="1.51"/><rect class="cls-3" x="69.3" y="87.46" width="1.51" height="1.51"/><rect class="cls-3" x="69.3" y="85.95" width="1.51" height="1.51"/><rect class="cls-2" x="69.3" y="84.43" width="1.51" height="1.51"/><rect class="cls-2" x="69.3" y="82.92" width="1.51" height="1.51"/><rect class="cls-2" x="69.3" y="43.57" width="1.51" height="1.51"/><rect class="cls-2" x="69.3" y="42.05" width="1.51" height="1.51"/><rect class="cls-2" x="69.3" y="40.54" width="1.51" height="1.51"/><rect class="cls-3" x="69.3" y="39.03" width="1.51" height="1.51"/><rect class="cls-3" x="69.3" y="37.51" width="1.51" height="1.51"/><rect class="cls-2" x="69.3" y="36" width="1.51" height="1.51"/><rect class="cls-2" x="67.78" y="90.49" width="1.51" height="1.51"/><rect class="cls-2" x="67.78" y="88.97" width="1.51" height="1.51"/><rect class="cls-3" x="67.78" y="87.46" width="1.51" height="1.51"/><rect class="cls-2" x="67.78" y="85.95" width="1.51" height="1.51"/><rect class="cls-2" x="67.78" y="84.43" width="1.51" height="1.51"/><rect class="cls-2" x="67.78" y="82.92" width="1.51" height="1.51"/><rect class="cls-2" x="67.78" y="43.57" width="1.51" height="1.51"/><rect class="cls-2" x="67.78" y="42.05" width="1.51" height="1.51"/><rect class="cls-2" x="67.78" y="40.54" width="1.51" height="1.51"/><rect class="cls-3" x="67.78" y="39.03" width="1.51" height="1.51"/><rect class="cls-3" x="67.78" y="37.51" width="1.51" height="1.51"/><rect class="cls-2" x="67.78" y="36" width="1.51" height="1.51"/><rect class="cls-2" x="67.78" y="34.49" width="1.51" height="1.51"/><rect class="cls-2" x="66.27" y="90.49" width="1.51" height="1.51"/><rect class="cls-2" x="66.27" y="88.97" width="1.51" height="1.51"/><rect class="cls-2" x="66.27" y="85.95" width="1.51" height="1.51"/><rect class="cls-2" x="66.27" y="84.43" width="1.51" height="1.51"/><rect class="cls-2" x="66.27" y="43.57" width="1.51" height="1.51"/><rect class="cls-2" x="66.27" y="42.05" width="1.51" height="1.51"/><rect class="cls-2" x="66.27" y="40.54" width="1.51" height="1.51"/><rect class="cls-3" x="66.27" y="37.51" width="1.51" height="1.51"/><rect class="cls-2" x="66.27" y="36" width="1.51" height="1.51"/><rect class="cls-2" x="66.27" y="34.49" width="1.51" height="1.51"/><rect class="cls-2" x="64.76" y="90.49" width="1.51" height="1.51"/><rect class="cls-2" x="64.76" y="88.97" width="1.51" height="1.51"/><rect class="cls-2" x="64.76" y="87.46" width="1.51" height="1.51"/><rect class="cls-2" x="64.76" y="85.95" width="1.51" height="1.51"/><rect class="cls-2" x="64.76" y="84.43" width="1.51" height="1.51"/><rect class="cls-2" x="64.76" y="43.57" width="1.51" height="1.51"/><rect class="cls-2" x="64.76" y="42.05" width="1.51" height="1.51"/><rect class="cls-2" x="64.76" y="40.54" width="1.51" height="1.51"/><rect class="cls-3" x="64.76" y="37.51" width="1.51" height="1.51"/><rect class="cls-3" x="64.76" y="36" width="1.51" height="1.51"/><rect class="cls-2" x="64.76" y="34.49" width="1.51" height="1.51"/><rect class="cls-2" x="63.24" y="88.97" width="1.51" height="1.51"/><rect class="cls-2" x="63.24" y="87.46" width="1.51" height="1.51"/><rect class="cls-2" x="63.24" y="85.95" width="1.51" height="1.51"/><rect class="cls-2" x="63.24" y="84.43" width="1.51" height="1.51"/><rect class="cls-2" x="63.24" y="42.05" width="1.51" height="1.51"/><rect class="cls-2" x="63.24" y="40.54" width="1.51" height="1.51"/><rect class="cls-3" x="63.24" y="37.51" width="1.51" height="1.51"/><rect class="cls-2" x="63.24" y="36" width="1.51" height="1.51"/><rect class="cls-2" x="63.24" y="34.49" width="1.51" height="1.51"/><rect class="cls-2" x="61.73" y="43.57" width="1.51" height="1.51"/><rect class="cls-2" x="61.73" y="42.05" width="1.51" height="1.51"/><rect class="cls-2" x="61.73" y="40.54" width="1.51" height="1.51"/><rect class="cls-3" x="61.73" y="37.51" width="1.51" height="1.51"/><rect class="cls-2" x="61.73" y="36" width="1.51" height="1.51"/><rect class="cls-2" x="60.22" y="43.57" width="1.51" height="1.51"/><rect class="cls-2" x="60.22" y="42.05" width="1.51" height="1.51"/><rect class="cls-3" x="60.22" y="37.51" width="1.51" height="1.51"/><rect class="cls-2" x="60.22" y="36" width="1.51" height="1.51"/><rect class="cls-2" x="58.7" y="42.05" width="1.51" height="1.51"/><rect class="cls-3" x="58.7" y="40.54" width="1.51" height="1.51"/><rect class="cls-3" x="58.7" y="39.03" width="1.51" height="1.51"/><rect class="cls-2" x="58.7" y="37.51" width="1.51" height="1.51"/><rect class="cls-2" x="58.7" y="36" width="1.51" height="1.51"/><rect class="cls-2" x="57.19" y="42.05" width="1.51" height="1.51"/><rect class="cls-2" x="57.19" y="40.54" width="1.51" height="1.51"/><rect class="cls-2" x="57.19" y="39.03" width="1.51" height="1.51"/><rect class="cls-2" x="57.19" y="37.51" width="1.51" height="1.51"/><rect class="cls-2" x="55.68" y="39.03" width="1.51" height="1.51"/><rect class="cls-2" x="51.14" y="87.46" width="1.51" height="1.51"/><rect class="cls-2" x="51.14" y="85.95" width="1.51" height="1.51"/><rect class="cls-2" x="51.14" y="84.43" width="1.51" height="1.51"/><rect class="cls-2" x="51.14" y="82.92" width="1.51" height="1.51"/><rect class="cls-2" x="51.14" y="49.62" width="1.51" height="1.51"/><rect class="cls-2" x="51.14" y="48.11" width="1.51" height="1.51"/><rect class="cls-2" x="51.14" y="46.59" width="1.51" height="1.51"/><rect class="cls-2" x="49.62" y="88.97" width="1.51" height="1.51"/><rect class="cls-3" x="49.62" y="87.46" width="1.51" height="1.51"/><rect class="cls-3" x="49.62" y="85.95" width="1.51" height="1.51"/><rect class="cls-2" x="49.62" y="84.43" width="1.51" height="1.51"/><rect class="cls-2" x="49.62" y="82.92" width="1.51" height="1.51"/><rect class="cls-2" x="49.62" y="81.41" width="1.51" height="1.51"/><rect class="cls-2" x="49.62" y="79.89" width="1.51" height="1.51"/><rect class="cls-2" x="49.62" y="51.13" width="1.51" height="1.51"/><rect class="cls-2" x="49.62" y="49.62" width="1.51" height="1.51"/><rect class="cls-2" x="49.62" y="48.11" width="1.51" height="1.51"/><rect class="cls-2" x="49.62" y="46.59" width="1.51" height="1.51"/><rect class="cls-2" x="48.11" y="88.97" width="1.51" height="1.51"/><rect class="cls-2" x="48.11" y="87.46" width="1.51" height="1.51"/><rect class="cls-3" x="48.11" y="85.95" width="1.51" height="1.51"/><rect class="cls-2" x="48.11" y="84.43" width="1.51" height="1.51"/><rect class="cls-2" x="48.11" y="82.92" width="1.51" height="1.51"/><rect class="cls-2" x="48.11" y="81.41" width="1.51" height="1.51"/><rect class="cls-2" x="48.11" y="79.89" width="1.51" height="1.51"/><rect class="cls-2" x="48.11" y="52.65" width="1.51" height="1.51"/><rect class="cls-2" x="48.11" y="51.13" width="1.51" height="1.51"/><rect class="cls-2" x="48.11" y="49.62" width="1.51" height="1.51"/><rect class="cls-2" x="48.11" y="46.59" width="1.51" height="1.51"/><rect class="cls-2" x="48.11" y="45.08" width="1.51" height="1.51"/><rect class="cls-2" x="48.11" y="43.57" width="1.51" height="1.51"/><rect class="cls-2" x="46.59" y="87.46" width="1.51" height="1.51"/><rect class="cls-3" x="46.59" y="85.95" width="1.51" height="1.51"/><rect class="cls-2" x="46.59" y="84.43" width="1.51" height="1.51"/><rect class="cls-2" x="46.59" y="82.92" width="1.51" height="1.51"/><rect class="cls-2" x="46.59" y="81.41" width="1.51" height="1.51"/><rect class="cls-2" x="46.59" y="79.89" width="1.51" height="1.51"/><rect class="cls-2" x="46.59" y="78.38" width="1.51" height="1.51"/><rect class="cls-2" x="46.59" y="54.16" width="1.51" height="1.51"/><rect class="cls-2" x="46.59" y="52.65" width="1.51" height="1.51"/><rect class="cls-2" x="46.59" y="51.13" width="1.51" height="1.51"/><rect class="cls-3" x="46.59" y="46.59" width="1.51" height="1.51"/><rect class="cls-2" x="46.59" y="45.08" width="1.51" height="1.51"/><rect class="cls-2" x="46.59" y="43.57" width="1.51" height="1.51"/><rect class="cls-2" x="45.08" y="87.46" width="1.51" height="1.51"/><rect class="cls-3" x="45.08" y="85.95" width="1.51" height="1.51"/><rect class="cls-3" x="45.08" y="84.43" width="1.51" height="1.51"/><rect class="cls-2" x="45.08" y="82.92" width="1.51" height="1.51"/><rect class="cls-2" x="45.08" y="81.41" width="1.51" height="1.51"/><rect class="cls-2" x="45.08" y="79.89" width="1.51" height="1.51"/><rect class="cls-2" x="45.08" y="78.38" width="1.51" height="1.51"/><rect class="cls-2" x="45.08" y="76.87" width="1.51" height="1.51"/><rect class="cls-2" x="45.08" y="75.35" width="1.51" height="1.51"/><rect class="cls-2" x="45.08" y="55.68" width="1.51" height="1.51"/><rect class="cls-2" x="45.08" y="54.16" width="1.51" height="1.51"/><rect class="cls-2" x="45.08" y="52.65" width="1.51" height="1.51"/><rect class="cls-2" x="45.08" y="51.13" width="1.51" height="1.51"/><rect class="cls-3" x="45.08" y="48.11" width="1.51" height="1.51"/><rect class="cls-3" x="45.08" y="46.59" width="1.51" height="1.51"/><rect class="cls-2" x="45.08" y="45.08" width="1.51" height="1.51"/><rect class="cls-2" x="45.08" y="43.57" width="1.51" height="1.51"/><rect class="cls-2" x="43.57" y="85.95" width="1.51" height="1.51"/><rect class="cls-3" x="43.57" y="84.43" width="1.51" height="1.51"/><rect class="cls-3" x="43.57" y="82.92" width="1.51" height="1.51"/><rect class="cls-3" x="43.57" y="81.41" width="1.51" height="1.51"/><rect class="cls-2" x="43.57" y="79.89" width="1.51" height="1.51"/><rect class="cls-2" x="43.57" y="78.38" width="1.51" height="1.51"/><rect class="cls-2" x="43.57" y="76.87" width="1.51" height="1.51"/><rect class="cls-2" x="43.57" y="75.35" width="1.51" height="1.51"/><rect class="cls-2" x="43.57" y="73.84" width="1.51" height="1.51"/><rect class="cls-2" x="43.57" y="58.7" width="1.51" height="1.51"/><rect class="cls-2" x="43.57" y="57.19" width="1.51" height="1.51"/><rect class="cls-2" x="43.57" y="55.68" width="1.51" height="1.51"/><rect class="cls-2" x="43.57" y="54.16" width="1.51" height="1.51"/><rect class="cls-2" x="43.57" y="52.65" width="1.51" height="1.51"/><rect class="cls-3" x="43.57" y="48.11" width="1.51" height="1.51"/><rect class="cls-2" x="43.57" y="46.59" width="1.51" height="1.51"/><rect class="cls-2" x="43.57" y="45.08" width="1.51" height="1.51"/><rect class="cls-2" x="43.57" y="43.57" width="1.51" height="1.51"/><rect class="cls-2" x="42.05" y="85.95" width="1.51" height="1.51"/><rect class="cls-2" x="42.05" y="84.43" width="1.51" height="1.51"/><rect class="cls-3" x="42.05" y="82.92" width="1.51" height="1.51"/><rect class="cls-3" x="42.05" y="81.41" width="1.51" height="1.51"/><rect class="cls-3" x="42.05" y="79.89" width="1.51" height="1.51"/><rect class="cls-2" x="42.05" y="78.38" width="1.51" height="1.51"/><rect class="cls-2" x="42.05" y="76.87" width="1.51" height="1.51"/><rect class="cls-2" x="42.05" y="75.35" width="1.51" height="1.51"/><rect class="cls-3" x="42.05" y="73.84" width="1.51" height="1.51"/><rect class="cls-2" x="42.05" y="72.32" width="1.51" height="1.51"/><rect class="cls-2" x="42.05" y="70.81" width="1.51" height="1.51"/><rect class="cls-2" x="42.05" y="60.22" width="1.51" height="1.51"/><rect class="cls-2" x="42.05" y="58.7" width="1.51" height="1.51"/><rect class="cls-2" x="42.05" y="57.19" width="1.51" height="1.51"/><rect class="cls-2" x="42.05" y="55.68" width="1.51" height="1.51"/><rect class="cls-3" x="42.05" y="54.16" width="1.51" height="1.51"/><rect class="cls-3" x="42.05" y="52.65" width="1.51" height="1.51"/><rect class="cls-3" x="42.05" y="51.13" width="1.51" height="1.51"/><rect class="cls-3" x="42.05" y="49.62" width="1.51" height="1.51"/><rect class="cls-3" x="42.05" y="48.11" width="1.51" height="1.51"/><rect class="cls-2" x="42.05" y="46.59" width="1.51" height="1.51"/><rect class="cls-2" x="42.05" y="45.08" width="1.51" height="1.51"/><rect class="cls-2" x="40.54" y="84.43" width="1.51" height="1.51"/><rect class="cls-2" x="40.54" y="82.92" width="1.51" height="1.51"/><rect class="cls-3" x="40.54" y="81.41" width="1.51" height="1.51"/><rect class="cls-3" x="40.54" y="79.89" width="1.51" height="1.51"/><rect class="cls-3" x="40.54" y="78.38" width="1.51" height="1.51"/><rect class="cls-3" x="40.54" y="76.87" width="1.51" height="1.51"/><rect class="cls-3" x="40.54" y="75.35" width="1.51" height="1.51"/><rect class="cls-2" x="40.54" y="73.84" width="1.51" height="1.51"/><rect class="cls-2" x="40.54" y="72.32" width="1.51" height="1.51"/><rect class="cls-2" x="40.54" y="70.81" width="1.51" height="1.51"/><rect class="cls-2" x="40.54" y="61.73" width="1.51" height="1.51"/><rect class="cls-2" x="40.54" y="60.22" width="1.51" height="1.51"/><rect class="cls-2" x="40.54" y="58.7" width="1.51" height="1.51"/><rect class="cls-3" x="40.54" y="57.19" width="1.51" height="1.51"/><rect class="cls-3" x="40.54" y="55.68" width="1.51" height="1.51"/><rect class="cls-3" x="40.54" y="54.16" width="1.51" height="1.51"/><rect class="cls-3" x="40.54" y="52.65" width="1.51" height="1.51"/><rect class="cls-3" x="40.54" y="51.13" width="1.51" height="1.51"/><rect class="cls-2" x="40.54" y="49.62" width="1.51" height="1.51"/><rect class="cls-2" x="40.54" y="48.11" width="1.51" height="1.51"/><rect class="cls-2" x="40.54" y="46.59" width="1.51" height="1.51"/><rect class="cls-2" x="39.03" y="82.92" width="1.51" height="1.51"/><rect class="cls-2" x="39.03" y="81.41" width="1.51" height="1.51"/><rect class="cls-3" x="39.03" y="79.89" width="1.51" height="1.51"/><rect class="cls-3" x="39.03" y="78.38" width="1.51" height="1.51"/><rect class="cls-2" x="39.03" y="76.87" width="1.51" height="1.51"/><rect class="cls-2" x="39.03" y="75.35" width="1.51" height="1.51"/><rect class="cls-2" x="39.03" y="73.84" width="1.51" height="1.51"/><rect class="cls-2" x="39.03" y="72.32" width="1.51" height="1.51"/><rect class="cls-2" x="39.03" y="60.22" width="1.51" height="1.51"/><rect class="cls-2" x="39.03" y="58.7" width="1.51" height="1.51"/><rect class="cls-3" x="39.03" y="57.19" width="1.51" height="1.51"/><rect class="cls-3" x="39.03" y="55.68" width="1.51" height="1.51"/><rect class="cls-3" x="39.03" y="54.16" width="1.51" height="1.51"/><rect class="cls-2" x="39.03" y="52.65" width="1.51" height="1.51"/><rect class="cls-2" x="39.03" y="51.13" width="1.51" height="1.51"/><rect class="cls-2" x="39.03" y="49.62" width="1.51" height="1.51"/><rect class="cls-2" x="39.03" y="48.11" width="1.51" height="1.51"/><rect class="cls-2" x="37.51" y="82.92" width="1.51" height="1.51"/><rect class="cls-2" x="37.51" y="81.41" width="1.51" height="1.51"/><rect class="cls-2" x="37.51" y="79.89" width="1.51" height="1.51"/><rect class="cls-2" x="37.51" y="78.38" width="1.51" height="1.51"/><rect class="cls-2" x="37.51" y="75.35" width="1.51" height="1.51"/><rect class="cls-2" x="37.51" y="73.84" width="1.51" height="1.51"/><rect class="cls-2" x="37.51" y="58.7" width="1.51" height="1.51"/><rect class="cls-2" x="37.51" y="57.19" width="1.51" height="1.51"/><rect class="cls-2" x="37.51" y="55.68" width="1.51" height="1.51"/><rect class="cls-2" x="37.51" y="54.16" width="1.51" height="1.51"/><rect class="cls-2" x="37.51" y="52.65" width="1.51" height="1.51"/><rect class="cls-2" x="36" y="81.41" width="1.51" height="1.51"/><rect class="cls-2" x="36" y="79.89" width="1.51" height="1.51"/><rect class="cls-2" x="36" y="58.7" width="1.51" height="1.51"/><rect class="cls-2" x="36" y="57.19" width="1.51" height="1.51"/><rect class="cls-2" x="36" y="55.68" width="1.51" height="1.51"/><rect class="cls-2" x="36" y="54.16" width="1.51" height="1.51"/></g></g></svg>